<svg width="50" height="50" viewBox="0 0 50 50" fill="none" xmlns="http://www.w3.org/2000/svg">
<path d="M26 30.9999C26 28.8749 25.0517 26.8895 23.3989 25.5526C22.9697 25.2049 22.3393 25.2723 21.9922 25.701C21.645 26.1307 21.7119 26.7606 22.1411 27.1073C23.3227 28.0624 24 29.4813 24 30.9999C24 33.7567 21.7568 35.9999 19 35.9999C16.2432 35.9999 14 33.7567 14 30.9999C14 29.4813 14.6772 28.0624 15.8589 27.1073C16.2881 26.7606 16.355 26.1307 16.0078 25.701C15.6602 25.2723 15.0313 25.2059 14.6011 25.5526C12.9482 26.8895 12 28.8749 12 30.9999C12 34.8593 15.1401 37.9999 19 37.9999C22.8599 37.9999 26 34.8593 26 30.9999Z" fill="#010101"/>
<path d="M20 19C20 18.4473 19.5522 18 19 18C11.8315 18 6 23.832 6 31C6 31.5527 6.44775 32 7 32C7.55225 32 8 31.5527 8 31C8 24.9346 12.9346 20 19 20C19.5522 20 20 19.5527 20 19Z" fill="#010101"/>
<path d="M30 31C30 37.0654 25.0654 42 19 42C18.4477 42 18 42.4473 18 43C18 43.5527 18.4477 44 19 44C26.1685 44 32 38.168 32 31C32 30.4473 31.5522 30 31 30C30.4478 30 30 30.4473 30 31Z" fill="#010101"/>
<path d="M16 31C16 32.6543 17.3457 34 19 34C20.6543 34 22 32.6543 22 31C22 29.3457 20.6543 28 19 28C17.3457 28 16 29.3457 16 31ZM19 30C19.5513 30 20 30.4482 20 31C20 31.5518 19.5513 32 19 32C18.4487 32 18 31.5518 18 31C18 30.4482 18.4487 30 19 30Z" fill="#010101"/>
<path d="M49 44H35C34.4477 44 34 44.4473 34 45V49C34 49.5527 34.4477 50 35 50H49C49.5522 50 50 49.5527 50 49V45C50 44.4473 49.5522 44 49 44ZM48 48H36V46H48V48Z" fill="#010101"/>
<path d="M49 36H45C44.4477 36 44 36.4473 44 37V41C44 41.5527 44.4477 42 45 42H49C49.5522 42 50 41.5527 50 41V37C50 36.4473 49.5522 36 49 36ZM48 40H46V38H48V40Z" fill="#010101"/>
<path d="M49 28H45C44.4477 28 44 28.4473 44 29V33C44 33.5527 44.4477 34 45 34H49C49.5522 34 50 33.5527 50 33V29C50 28.4473 49.5522 28 49 28ZM48 32H46V30H48V32Z" fill="#010101"/>
<path d="M49 20H45C44.4477 20 44 20.4473 44 21V25C44 25.5527 44.4477 26 45 26H49C49.5522 26 50 25.5527 50 25V21C50 20.4473 49.5522 20 49 20ZM48 24H46V22H48V24Z" fill="#010101"/>
<path d="M49 0H37C36.45 0 36 0.45001 36 1V5C36 5.54999 36.45 6 37 6H38V9C38 9.54999 38.45 10 39 10H42V13.56L34.69 20.31C31.27 15.3 25.51 12 19 12C8.52002 12 0 20.52 0 31C0 41.48 8.52002 50 19 50C29.48 50 38 41.48 38 31C38 27.77 37.18 24.72 35.75 22.05L43.68 14.73C43.88 14.55 44 14.28 44 14V10H47C47.55 10 48 9.54999 48 9V6H49C49.55 6 50 5.54999 50 5V1C50 0.45001 49.55 0 49 0ZM36 31C36 40.37 28.37 48 19 48C9.63 48 2 40.37 2 31C2 21.63 9.63 14 19 14C24.93 14 30.16 17.06 33.2 21.68L29.32 25.27C28.92 25.64 28.89 26.2698 29.2699 26.6799C29.6212 27.0591 30.2798 27.1091 30.68 26.73L34.22 23.47C35.35 25.74 36 28.29 36 31ZM46 8H40V6H46V8ZM48 4H38V2H48V4Z" fill="#010101"/>
<path d="M5 10C7.75684 10 10 7.75684 10 5C10 2.24316 7.75684 0 5 0C2.24316 0 0 2.24316 0 5C0 7.75684 2.24316 10 5 10ZM4 2.18427V5C4 5.55273 4.44775 6 5 6C5.55225 6 6 5.55273 6 5V2.18427C7.1615 2.59839 8 3.69806 8 5C8 6.6543 6.6543 8 5 8C3.3457 8 2 6.6543 2 5C2 3.69806 2.8385 2.59839 4 2.18427Z" fill="#010101"/>
<path d="M17 10C19.7568 10 22 7.75684 22 5C22 2.24316 19.7568 0 17 0C14.2432 0 12 2.24316 12 5C12 7.75684 14.2432 10 17 10ZM17 2C17.4619 2 17.8944 2.11353 18.2856 2.30072L16.293 4.29297C15.9024 4.68359 15.9024 5.31641 16.293 5.70703C16.4883 5.90234 16.7441 6 17 6C17.2559 6 17.5117 5.90234 17.707 5.70703L19.6995 3.71484C19.8866 4.10589 20 4.53833 20 5C20 6.6543 18.6543 8 17 8C15.3457 8 14 6.6543 14 5C14 3.3457 15.3457 2 17 2Z" fill="#010101"/>
<path d="M29 10C31.7568 10 34 7.75684 34 5C34 2.24316 31.7568 0 29 0C26.2432 0 24 2.24316 24 5C24 7.75684 26.2432 10 29 10ZM29 2C30.6543 2 32 3.3457 32 5C32 6.6543 30.6543 8 29 8C28.5381 8 28.1057 7.88647 27.7145 7.69928L29.707 5.70703C30.0977 5.31641 30.0977 4.68359 29.707 4.29297C29.3164 3.90235 28.6836 3.90235 28.293 4.29297L26.3005 6.2851C26.1134 5.89405 26 5.46167 26 5C26 3.3457 27.3457 2 29 2Z" fill="#010101"/>
<path d="M19 26C19.5523 26 20 25.5523 20 25C20 24.4477 19.5523 24 19 24C18.4477 24 18 24.4477 18 25C18 25.5523 18.4477 26 19 26Z" fill="#010101"/>
</svg>
