<svg width="25" height="24" viewBox="0 0 25 24" fill="none" xmlns="http://www.w3.org/2000/svg">
<path d="M12.4336 2.16221C15.6377 2.16221 16.0172 2.1744 17.2826 2.23213C18.4526 2.28553 19.088 2.48102 19.5109 2.64531C20.0709 2.863 20.4707 3.12308 20.8906 3.54297C21.3105 3.96287 21.5706 4.36266 21.7882 4.92274C21.9526 5.34564 22.1481 5.98103 22.2015 7.15097C22.2592 8.41637 22.2714 8.79587 22.2714 12C22.2714 15.2042 22.2592 15.5837 22.2015 16.849C22.1481 18.019 21.9526 18.6544 21.7882 19.0773C21.5706 19.6374 21.3105 20.0372 20.8906 20.4571C20.4707 20.877 20.0709 21.137 19.5109 21.3547C19.088 21.519 18.4526 21.7145 17.2826 21.7679C16.0174 21.8256 15.6379 21.8378 12.4336 21.8378C9.22923 21.8378 8.84972 21.8256 7.58456 21.7679C6.41458 21.7145 5.77918 21.519 5.35634 21.3547C4.79621 21.137 4.39642 20.877 3.97652 20.4571C3.55663 20.0372 3.29654 19.6374 3.0789 19.0773C2.91457 18.6544 2.71908 18.019 2.66568 16.8491C2.60795 15.5837 2.59575 15.2042 2.59575 12C2.59575 8.79587 2.60795 8.41637 2.66568 7.15102C2.71908 5.98103 2.91457 5.34564 3.0789 4.92274C3.29654 4.36266 3.55663 3.96287 3.97652 3.54297C4.39642 3.12308 4.79621 2.863 5.35634 2.64531C5.77918 2.48102 6.41458 2.28553 7.58452 2.23213C8.84992 2.1744 9.22942 2.16221 12.4336 2.16221ZM12.4336 0C9.17454 0 8.76594 0.0138139 7.48601 0.0722133C6.2087 0.130517 5.33643 0.333343 4.57309 0.630008C3.78398 0.936677 3.11477 1.347 2.44766 2.01411C1.78054 2.68123 1.37022 3.35044 1.06355 4.13954C0.766889 4.90288 0.564063 5.77516 0.505759 7.05246C0.44736 8.33234 0.433594 8.741 0.433594 12C0.433594 15.2591 0.44736 15.6677 0.505759 16.9476C0.564063 18.2249 0.766889 19.0972 1.06355 19.8605C1.37022 20.6496 1.78054 21.3188 2.44766 21.9859C3.11477 22.6531 3.78398 23.0634 4.57309 23.37C5.33643 23.6667 6.2087 23.8695 7.48601 23.9278C8.76594 23.9862 9.17454 24 12.4336 24C15.6926 24 16.1013 23.9862 17.3811 23.9278C18.6584 23.8695 19.5307 23.6667 20.2941 23.37C21.0832 23.0634 21.7524 22.6531 22.4195 21.9859C23.0866 21.3188 23.4969 20.6496 23.8036 19.8605C24.1003 19.0972 24.3031 18.2249 24.3614 16.9476C24.4198 15.6677 24.4336 15.2591 24.4336 12C24.4336 8.741 24.4198 8.33234 24.3614 7.05246C24.3031 5.77516 24.1003 4.90288 23.8036 4.13954C23.4969 3.35044 23.0866 2.68123 22.4195 2.01411C21.7524 1.347 21.0832 0.936677 20.2941 0.630008C19.5307 0.333343 18.6584 0.130517 17.3811 0.0722133C16.1013 0.0138139 15.6926 0 12.4336 0ZM12.4336 5.83784C9.03031 5.83784 6.27139 8.59676 6.27139 12C6.27139 15.4033 9.03031 18.1622 12.4336 18.1622C15.8368 18.1622 18.5958 15.4033 18.5958 12C18.5958 8.59676 15.8368 5.83784 12.4336 5.83784ZM12.4336 16C10.2244 16 8.43355 14.2091 8.43355 12C8.43355 9.7909 10.2244 8 12.4336 8C14.6427 8 16.4336 9.7909 16.4336 12C16.4336 14.2091 14.6427 16 12.4336 16ZM20.2792 5.59438C20.2792 6.38968 19.6345 7.03441 18.8392 7.03441C18.0439 7.03441 17.3992 6.38968 17.3992 5.59438C17.3992 4.79909 18.0439 4.15441 18.8392 4.15441C19.6345 4.15441 20.2792 4.79909 20.2792 5.59438Z" fill="#1C2B33"/>
</svg>
