<?xml version="1.0" encoding="utf-8"?>
<!-- Generator: $$$/GeneralStr/196=Adobe Illustrator 27.6.0, SVG Export Plug-In . SVG Version: 6.00 Build 0)  -->
<svg version="1.1" id="Livello_1" xmlns="http://www.w3.org/2000/svg" xmlns:xlink="http://www.w3.org/1999/xlink" x="0px" y="0px"
	 viewBox="0 0 1080 1080" style="enable-background:new 0 0 1080 1080;" xml:space="preserve">
<style type="text/css">
	.st0{fill:#D9DFE6;}
</style>
<path class="st0" d="M540.1,0.3C242,0.3,0.3,242,0.3,540.1C0.3,838.3,242,1080,540.1,1080c298.2,0,539.9-241.7,539.9-539.9
	C1080,242,838.3,0.3,540.1,0.3L540.1,0.3z M787.7,778.9c-9.7,15.9-30.4,20.9-46.3,11.2c-126.8-77.4-286.3-95-474.2-52
	c-18.1,4.1-36.2-7.2-40.3-25.3s7.2-36.2,25.3-40.3c205.7-47,382.1-26.8,524.4,60.2C792.4,742.4,797.4,763.1,787.7,778.9z
	 M853.8,631.9c-12.2,19.8-38.1,26.1-57.9,13.9c-145.1-89.2-366.3-115-538-62.9c-22.3,6.7-45.8-5.8-52.5-28
	c-6.7-22.3,5.8-45.7,28.1-52.5c196.1-59.5,439.8-30.7,606.5,71.7C859.7,586.2,866,612.2,853.8,631.9L853.8,631.9z M859.5,478.8
	c-174-103.3-461.1-112.9-627.2-62.4c-26.7,8.1-54.9-7-63-33.6c-8.1-26.7,7-54.9,33.7-63c190.7-57.9,507.7-46.7,708,72.2
	c24,14.2,31.9,45.2,17.7,69.2S883.4,493.1,859.5,478.8L859.5,478.8z"/>
</svg>
