<?xml version="1.0" encoding="utf-8"?>
<!-- Generator: $$$/GeneralStr/196=Adobe Illustrator 27.6.0, SVG Export Plug-In . SVG Version: 6.00 Build 0)  -->
<svg version="1.1" id="Layer_1" xmlns="http://www.w3.org/2000/svg" xmlns:xlink="http://www.w3.org/1999/xlink" x="0px" y="0px"
	 viewBox="0 0 800 800" style="enable-background:new 0 0 800 800;" xml:space="preserve">
<g id="XMLID_468_">
	<g id="XMLID_469_">
		<g>
			<g>
				<path d="M595.4,522c-8.2,22.8-47.3,43.1-63.7,44.5l-3,0.3c-4.3,0.4-9.1,0.9-15,0.9c-14.4,0-39.9-2.5-94.9-24.5
					c-56.9-22.8-113.3-71.8-158.7-138.1l-0.7-1c-0.5-0.8-1-1.4-1.3-1.8c-11.5-15.2-38.4-55.1-38.4-96.6c0-20.3,4.2-38.4,12.4-53.8
					c8.4-15.7,17.9-22.5,20.6-24.2c10.7-6.7,37.8-10.7,43.6-11c2.3-0.1,3.2-0.1,3.7-0.2h0.4c3.3,0,10.2,0,16.9,15.9
					c0.6,1.5,2.5,6.1,5.1,12.3c16.2,39.1,22.9,55.1,23.9,57c1.4,2.7,4.6,9,0.7,16.6l-1.3,2.7c-2.4,4.8-4.1,8.3-8.1,12.9
					c-1.6,1.9-3.2,3.8-4.8,5.7l-0.2,0.3c-3.1,3.8-6.4,7.7-9.2,10.5c-3.1,3.1-5.2,5.4-6,8.5l-0.4,1.5l4.4,8.3l0.1,0.2
					c13,21.2,59.6,82,119.4,107.9c13.2,5.8,14.8,5.8,16.3,5.8c4.7,0,7.9-3,9.9-5.2c4.3-4.9,23.2-26.7,29.8-36.6
					c3.3-4.9,6.9-7.2,11.3-7.2c3.2,0,6.8,1.2,10.2,2.4c2.7,1,14.7,6,67.4,31.9l1.4,0.7c0.3,0.2,0.5,0.2,0.6,0.3
					c6.4,3.1,11,5.3,12.9,8.5C603.5,481.8,602.7,501.8,595.4,522z"/>
			</g>
		</g>
	</g>
	<g id="XMLID_470_">
		<g>
			<g>
				<g>
					<path d="M407.1,9.3C195.6,9.3,23.5,180.1,23.5,390c0,67.8,18.2,134.3,52.6,192.5l2.4,4L9.3,790.3c-0.1,0.2,0,0.2,0,0.3
						c0.1,0.1,0.2,0.1,0.3,0.1l212.1-67.4l3.8,2c55.4,29.6,118.2,45.3,181.6,45.3c51.7,0,101.9-10.1,149.2-30
						c45.7-19.2,86.7-46.7,122-81.7c35.2-35,62.9-75.7,82.3-121c20-46.9,30.2-96.7,30.2-148C790.7,180.1,618.6,9.3,407.1,9.3z
						 M634.6,615.8c-60.9,60.4-141.7,93.6-227.5,93.6c-63.2,0-124.5-18.3-177.2-52.8c-0.1,0-0.2-0.1-0.2,0l-123.3,39.2l40.1-118.2
						c0-0.1,0-0.2,0-0.3C106.3,522.5,85.1,457.7,85.1,390c0-176.2,144.4-319.5,322-319.5C584.6,70.5,729,213.8,729,390
						C729,475.2,695.5,555.4,634.6,615.8z"/>
				</g>
			</g>
		</g>
	</g>
</g>
</svg>
